{
	"asset":{
		"generator":"Khronos glTF Blender I/O v4.4.56",
		"version":"2.0"
	},
	"scene":0,
	"scenes":[
		{
			"name":"Scene",
			"nodes":[
				0
			]
		}
	],
	"nodes":[
		{
			"mesh":0,
			"name":"bananon",
			"translation":[
				-0.13310664892196655,
				1.169561505317688,
				0.07954955101013184
			]
		}
	],
	"materials":[
		{
			"doubleSided":true,
			"name":"banana_material.001",
			"pbrMetallicRoughness":{
				"baseColorTexture":{
					"index":0
				},
				"metallicFactor":0,
				"roughnessFactor":0.5
			}
		}
	],
	"meshes":[
		{
			"name":"Cylinder",
			"primitives":[
				{
					"attributes":{
						"POSITION":0,
						"NORMAL":1,
						"TEXCOORD_0":2
					},
					"indices":3,
					"material":0
				}
			]
		}
	],
	"textures":[
		{
			"sampler":0,
			"source":0
		}
	],
	"images":[
		{
			"mimeType":"image/png",
			"name":"banana_texture",
			"uri":"banana_texture.png"
		}
	],
	"accessors":[
		{
			"bufferView":0,
			"componentType":5126,
			"count":38698,
			"max":[
				1.3613816499710083,
				3.0519187450408936,
				1.435986042022705
			],
			"min":[
				-1.7557289600372314,
				-1.1469534635543823,
				-1.4652514457702637
			],
			"type":"VEC3"
		},
		{
			"bufferView":1,
			"componentType":5126,
			"count":38698,
			"type":"VEC3"
		},
		{
			"bufferView":2,
			"componentType":5126,
			"count":38698,
			"type":"VEC2"
		},
		{
			"bufferView":3,
			"componentType":5123,
			"count":77844,
			"type":"SCALAR"
		}
	],
	"bufferViews":[
		{
			"buffer":0,
			"byteLength":464376,
			"byteOffset":0,
			"target":34962
		},
		{
			"buffer":0,
			"byteLength":464376,
			"byteOffset":464376,
			"target":34962
		},
		{
			"buffer":0,
			"byteLength":309584,
			"byteOffset":928752,
			"target":34962
		},
		{
			"buffer":0,
			"byteLength":155688,
			"byteOffset":1238336,
			"target":34963
		}
	],
	"samplers":[
		{
			"magFilter":9729,
			"minFilter":9987
		}
	],
	"buffers":[
		{
			"byteLength":1394024,
			"uri":"banana.bin"
		}
	]
}
