{
	"asset":{
		"generator":"Khronos glTF Blender I/O v4.4.56",
		"version":"2.0"
	},
	"scene":0,
	"scenes":[
		{
			"name":"Scene",
			"nodes":[
				2
			]
		}
	],
	"nodes":[
		{
			"name":"main_bone.banana"
		},
		{
			"mesh":0,
			"name":"bananite",
			"skin":0
		},
		{
			"children":[
				1,
				0
			],
			"name":"Armature",
			"translation":[
				-0.13310664892196655,
				0.10351559519767761,
				0.07954955101013184
			]
		}
	],
	"materials":[
		{
			"doubleSided":true,
			"name":"banana_material.001",
			"pbrMetallicRoughness":{
				"baseColorTexture":{
					"index":0
				},
				"metallicFactor":0,
				"roughnessFactor":0.5
			}
		}
	],
	"meshes":[
		{
			"name":"Cylinder",
			"primitives":[
				{
					"attributes":{
						"POSITION":0,
						"NORMAL":1,
						"TEXCOORD_0":2,
						"COLOR_0":3,
						"COLOR_1":4,
						"JOINTS_0":5,
						"WEIGHTS_0":6
					},
					"indices":7,
					"material":0
				}
			]
		}
	],
	"textures":[
		{
			"sampler":0,
			"source":0
		}
	],
	"images":[
		{
			"mimeType":"image/png",
			"name":"banana_texture",
			"uri":"banana_texture.png"
		}
	],
	"skins":[
		{
			"inverseBindMatrices":8,
			"joints":[
				0
			],
			"name":"Armature"
		}
	],
	"accessors":[
		{
			"bufferView":0,
			"componentType":5126,
			"count":31045,
			"max":[
				1.2282750606536865,
				4.221480369567871,
				1.515535593032837
			],
			"min":[
				-1.8888356685638428,
				0.022608041763305664,
				-1.3857018947601318
			],
			"type":"VEC3"
		},
		{
			"bufferView":1,
			"componentType":5126,
			"count":31045,
			"type":"VEC3"
		},
		{
			"bufferView":2,
			"componentType":5126,
			"count":31045,
			"type":"VEC2"
		},
		{
			"bufferView":3,
			"componentType":5121,
			"count":31045,
			"normalized":true,
			"type":"VEC4"
		},
		{
			"bufferView":4,
			"componentType":5123,
			"count":31045,
			"normalized":true,
			"type":"VEC4"
		},
		{
			"bufferView":5,
			"componentType":5121,
			"count":31045,
			"type":"VEC4"
		},
		{
			"bufferView":6,
			"componentType":5126,
			"count":31045,
			"type":"VEC4"
		},
		{
			"bufferView":7,
			"componentType":5123,
			"count":58500,
			"type":"SCALAR"
		},
		{
			"bufferView":8,
			"componentType":5126,
			"count":1,
			"type":"MAT4"
		}
	],
	"bufferViews":[
		{
			"buffer":0,
			"byteLength":372540,
			"byteOffset":0,
			"target":34962
		},
		{
			"buffer":0,
			"byteLength":372540,
			"byteOffset":372540,
			"target":34962
		},
		{
			"buffer":0,
			"byteLength":248360,
			"byteOffset":745080,
			"target":34962
		},
		{
			"buffer":0,
			"byteLength":124180,
			"byteOffset":993440,
			"target":34962
		},
		{
			"buffer":0,
			"byteLength":248360,
			"byteOffset":1117620,
			"target":34962
		},
		{
			"buffer":0,
			"byteLength":124180,
			"byteOffset":1365980,
			"target":34962
		},
		{
			"buffer":0,
			"byteLength":496720,
			"byteOffset":1490160,
			"target":34962
		},
		{
			"buffer":0,
			"byteLength":117000,
			"byteOffset":1986880,
			"target":34963
		},
		{
			"buffer":0,
			"byteLength":64,
			"byteOffset":2103880
		}
	],
	"samplers":[
		{
			"magFilter":9729,
			"minFilter":9987
		}
	],
	"buffers":[
		{
			"byteLength":2103944,
			"uri":"bananite.bin"
		}
	]
}
